<svg xmlns="http://www.w3.org/2000/svg" xmlns:xlink="http://www.w3.org/1999/xlink" width="120" height="41" viewBox="0 0 120 41">
  <defs>
    <style>
      .cls-1, .cls-2 {
        fill-rule: evenodd;
      }

      .cls-1 {
        fill: url(#linear-gradient);
      }

      .cls-2 {
        fill: #1a1a1a;
      }
    </style>
    <linearGradient id="linear-gradient" x1="0.031" y1="1.031" x2="38.938" y2="39.938" gradientUnits="userSpaceOnUse">
      <stop offset="0" stop-color="#5eedfb"/>
      <stop offset="0.222" stop-color="#5eedfb"/>
      <stop offset="1" stop-color="#1249d5"/>
    </linearGradient>
  </defs>
  <path id="矩形_3_拷贝" data-name="矩形 3 拷贝" class="cls-1" d="M15.834,35.323l0.023-.006a1.7,1.7,0,0,0,1.2.348,1.013,1.013,0,0,0,.338-0.042,1.841,1.841,0,0,0,1.281-2.208l0.012,0-0.016-.06a1.771,1.771,0,0,0-.644-0.987,1.732,1.732,0,0,0-1.212-.4,3.574,3.574,0,0,0-.355.072,1.693,1.693,0,0,0-.8.476,1.874,1.874,0,0,0-.485,1.771l0.006,0.024a1.8,1.8,0,0,0,.652.972l0.006,0.024Zm-1.067.639-0.012,0a45.191,45.191,0,0,1-4.165,2.285,18.74,18.74,0,0,0,5.26,1.867c0.043-1.125.045-2.264,0.02-3.409A2.671,2.671,0,0,1,14.767,35.962Zm22.484-23.64c-0.411.766-.837,1.523-1.28,2.259a3.142,3.142,0,0,1,.517,1.073,3.343,3.343,0,0,1,.075,1.2c0.772,0.427,1.521.861,2.256,1.337A19.73,19.73,0,0,0,37.251,12.322Zm-4.138,2.341a1.223,1.223,0,0,0-.435.2,1.774,1.774,0,0,0-.8.976,1.866,1.866,0,0,0-.038,1.1A1.831,1.831,0,0,0,33.576,18.3a1.494,1.494,0,0,0,.472-0.053,1.831,1.831,0,0,0,1.041-.785,1.78,1.78,0,0,0,.269-1.264,0.7,0.7,0,0,0-.033-0.221,0.694,0.694,0,0,0-.079-0.209,1.726,1.726,0,0,0-.848-0.957A1.673,1.673,0,0,0,33.114,14.663Zm3.051,3.383a3.031,3.031,0,0,1-1.805,1.393,2.776,2.776,0,0,1-1.574-.015,61.786,61.786,0,0,1-13.07,13.245,3.6,3.6,0,0,1,.12.364,3.1,3.1,0,0,1-2.128,3.785,3.37,3.37,0,0,1-.62.107c0.021,1.133.008,2.275-.038,3.389A18.738,18.738,0,0,0,24.53,39.8,19.962,19.962,0,0,0,38.943,19.713C38.025,19.108,37.108,18.554,36.165,18.046ZM13.6,10.768a3.032,3.032,0,0,1-1.653,1.977,64.2,64.2,0,0,1,3.067,8.983,63.48,63.48,0,0,1,1.677,9.007,3.052,3.052,0,0,1,2.354.9,60.178,60.178,0,0,0,12.64-12.793,3.014,3.014,0,0,1-1.013-1.589,3.219,3.219,0,0,1,.1-1.92A58.067,58.067,0,0,0,13.6,10.768Zm0.418,23.864a3.108,3.108,0,0,1,1.5-3.522l0-.012a62.43,62.43,0,0,0-1.663-9.049,61.49,61.49,0,0,0-3.1-9l0-.012a3.018,3.018,0,0,1-2.963-2.281,2.652,2.652,0,0,1-.069-0.314c-1.7-.018-3.413.056-5.136,0.185A20.391,20.391,0,0,0,.7,25.668,19.879,19.879,0,0,0,9.329,37.523c1.637-.8,3.243-1.66,4.785-2.583A2.943,2.943,0,0,1,14.021,34.632ZM8.958,10.447a1.8,1.8,0,0,0,1.215,1.265,1.6,1.6,0,0,0,.993.034,0.883,0.883,0,0,0,.29-0.131,1.675,1.675,0,0,0,.9-0.978,1.794,1.794,0,0,0,.083-1.162l-0.016-.06-0.012,0a1.782,1.782,0,0,0-2.184-1.254,2.213,2.213,0,0,0-.386.145,1.881,1.881,0,0,0-.8.91,0.276,0.276,0,0,0-.1,0,0.462,0.462,0,0,1,.051.1,1.917,1.917,0,0,0-.046,1.113ZM7.784,9.2a2.738,2.738,0,0,1,.551-1.137l0-.012c-0.5-.9-1-1.784-1.545-2.672A19.707,19.707,0,0,0,3.374,9.348C4.853,9.235,6.309,9.18,7.772,9.2ZM9.92,6.971a3,3,0,0,1,3.686,2.185c0.028,0.107.051,0.242,0.073,0.377A59.615,59.615,0,0,1,31.44,14.266a3.044,3.044,0,0,1,1.362-.8,2.9,2.9,0,0,1,2.241.279q0.823-1.359,1.549-2.806a19.3,19.3,0,0,0-22.135-9.75,19.03,19.03,0,0,0-6.728,3.4C8.251,5.446,8.771,6.34,9.267,7.24A2.235,2.235,0,0,1,9.92,6.971Z"/>
  <path id="FTSP" class="cls-2" d="M51.96,4.9a3.84,3.84,0,0,0-3.794,3.885h0V25.873a3.84,3.84,0,0,0,3.794-3.885V17.327h5.121a3.84,3.84,0,0,0,3.794-3.885H51.96V8.781H66.565V25.873a3.84,3.84,0,0,0,3.794-3.885V8.781h3.983A3.84,3.84,0,0,0,78.136,4.9H51.96ZM94.638,8.781A3.84,3.84,0,0,0,98.432,4.9H84.206a6.144,6.144,0,0,0-6.07,6.215,6.153,6.153,0,0,0,5.759,6.207c0,0.012,3.156.008,3.156,0.008h5.311a2.331,2.331,0,0,1,0,4.662H75.291A3.84,3.84,0,0,0,71.5,25.873H92.362a6.221,6.221,0,0,0,.311-12.423c0-.012-3.156-0.008-3.156-0.008H84.206a2.331,2.331,0,0,1,0-4.662H94.638ZM112.089,4.9h-8.157v0a3.841,3.841,0,0,0-3.739,3.882V25.873a3.84,3.84,0,0,0,3.794-3.885V17.327h5.256s3.161,0,3.157-.008a6.153,6.153,0,0,0,5.758-6.207A6.143,6.143,0,0,0,112.089,4.9Zm0,8.546h-5.311s-0.806,0-1.483,0h-1.308V8.781h8.1A2.331,2.331,0,0,1,112.089,13.442Z"/>
  <path id="金融科技服务平台2.0" class="cls-2" d="M52.314,33.809h1.349a13.634,13.634,0,0,1-.885,1.114l0.531,0.45a9.728,9.728,0,0,0,.966-1.232l-0.413-.332h0.745V33.124H52.314V32.379H53.8V31.862a8.979,8.979,0,0,0,1.187.6l0.288-.715a6.6,6.6,0,0,1-2.993-2.168H51.658a6.727,6.727,0,0,1-3.03,2.235l0.31,0.7A13.15,13.15,0,0,0,50.1,31.9v0.479h1.482v0.745H49.291v0.686h0.759l-0.442.406a10.761,10.761,0,0,1,.966,1.18l0.472-.531a9.9,9.9,0,0,0-.9-1.055h1.438V35.4H48.9v0.678H55V35.4H52.314V33.809ZM51.96,30.284a5.911,5.911,0,0,0,1.593,1.423H50.4A5.93,5.93,0,0,0,51.96,30.284Zm10.529,5.679a18.7,18.7,0,0,0-.546-1.917l-0.6.184a7.219,7.219,0,0,1,.273.826l-0.553.059V33.75h0.973v-3H61.066V29.635l-0.612-.03v1.143H59.488v3h0.966v1.416c-0.369.029-.745,0.052-1.121,0.066L59.392,35.9c0.848-.066,1.629-0.133,2.4-0.221,0.052,0.214.1,0.413,0.118,0.568Zm-3.126-6H55.957v0.575h3.406V29.96Zm-0.4,2.463V30.9H56.377v1.519h2.588Zm1.106,0.7V31.383h0.383v1.741H60.07Zm1.393-1.741v1.741h-0.4V31.383h0.4Zm-4.5.066h1.408v0.428H56.967V31.449Zm-0.863,4.7h0.59v-2.81h1.961v1.947a0.261,0.261,0,0,1-.295.324l-0.273.022,0.17,0.6,0.295-.022a0.589,0.589,0,0,0,.7-0.686V32.777H56.1v3.37Zm2.47-1.291V34.3H58.183c0.14-.258.28-0.531,0.369-0.73l-0.464-.2c-0.1.229-.288,0.612-0.442,0.929H57.276l0.346-.184a6.727,6.727,0,0,0-.391-0.723l-0.413.229a6.754,6.754,0,0,1,.369.678h-0.4v0.553h0.6v1.173h0.575V34.857h0.6Zm11.148-.546-0.044-.73-0.944.1V29.65l-0.715-.029v4.137L65.645,34l0.339-.361a11.793,11.793,0,0,0-.841-0.966l-0.177.162V32.312h0.922v-0.7H64.966V30.682c0.361-.081.7-0.155,0.988-0.236l-0.133-.671a18.743,18.743,0,0,1-2.5.5l0.066,0.678c0.265-.037.59-0.088,0.921-0.148v0.8H63.3v0.7h0.922a11.659,11.659,0,0,1-1.261,2.2l0.479,0.546a10.785,10.785,0,0,0,.87-1.482V36.28h0.656V33.426c0.2,0.229.413,0.5,0.56,0.7l0.066-.074,0.052,0.678,2.374-.243v1.77h0.715V34.414Zm-1.88-3.046c-0.339-.317-0.892-0.826-1.246-1.106l-0.442.531a13.118,13.118,0,0,1,1.231,1.136Zm-1.91,1.2c0.317,0.258.9,0.782,1.253,1.114L67.65,33a15.244,15.244,0,0,0-1.275-1.091Zm11.052,3.193a5.939,5.939,0,0,1-1.762-.885,5.324,5.324,0,0,0,1.165-1.918v-0.73h-1.32V31.236h1.681v-0.7H75.067V29.6l-0.745-.029v0.966h-1.43v0.7h1.43v0.892H72.9v0.708h0.921l-0.619.339a5.547,5.547,0,0,0,.892,1.519,10.547,10.547,0,0,1-1.917.944l0.369,0.774a11.579,11.579,0,0,0,2.108-1.158,8.869,8.869,0,0,0,2.064,1.224Zm-4.35-3.274-0.531.206V31.6h0.634V30.837H72.1V29.643l-0.737-.03v1.224H70.592V31.6h0.774v1.254c-0.435.148-.848,0.273-1.106,0.354l0.214,0.8c0.206-.059.538-0.17,0.892-0.295v1.431c0,0.273-.059.31-0.324,0.332l-0.332.029,0.229,0.774,0.324-.037c0.641-.081.84-0.162,0.84-0.789V33.448c0.295-.111.553-0.214,0.752-0.3Zm2.964,0.45a3.431,3.431,0,0,1-.936,1.416,4.974,4.974,0,0,1-.826-1.416H75.6Zm7.454,1.91a4.659,4.659,0,0,0,.826-1.777V32.32H81.364V30.6h1.725l-0.029.391c-0.022.214-.1,0.273-0.442,0.295l-0.553.03,0.221,0.656,0.6-.037c0.627-.037.826-0.155,0.848-0.767,0.022-.376.059-1.069,0.059-1.246H80.715v6.365h0.649V35.83l0.251,0.31a8.391,8.391,0,0,0,1.01-.885,6.634,6.634,0,0,0,1.261,1.018l0.413-.619A8.674,8.674,0,0,1,83.053,34.746Zm-4.866-2.035c0,2.109-.206,2.5-0.649,3.3l0.612,0.332A6.709,6.709,0,0,0,78.791,34h0.914V35.2c0,0.273-.029.31-0.354,0.332l-0.383.029,0.2,0.678,0.4-.037c0.6-.059.8-0.162,0.8-0.723V29.93H78.187v2.78Zm1.519-2.117v1.047h-0.87V30.594h0.87ZM78.828,33.36c0.007-.118.007-0.236,0.007-0.354V32.29h0.87V33.36H78.828Zm2.536-.391h1.873a3.883,3.883,0,0,1-.627,1.261A3.908,3.908,0,0,1,82.057,33l-0.56.214a5.513,5.513,0,0,0,.7,1.5,6.956,6.956,0,0,1-.833.708V32.969Zm7.653-.937a9.435,9.435,0,0,0,1.747-1.254v-0.6H87.4a4.854,4.854,0,0,0,.295-0.42l-0.641-.295a8.987,8.987,0,0,1-2,2.05l0.4,0.516a9.5,9.5,0,0,0,1.017-.819,6.164,6.164,0,0,0,1.017.8,16.7,16.7,0,0,1-2.639.737l0.229,0.723a17.233,17.233,0,0,0,3.163-1.047,12.619,12.619,0,0,0,3.192.951l0.17-.723A13.825,13.825,0,0,1,89.018,32.032Zm0.663-1.246a6.074,6.074,0,0,1-1.452.907,4.485,4.485,0,0,1-1.246-.907h2.7ZM87.27,32.873c-0.022.14-.029,0.391-0.081,0.664H85.346v0.627h1.71c-0.236.7-.789,1.121-2.057,1.608L85.42,36.4c1.489-.679,2.123-1.2,2.4-2.235h2.035c-0.037.251-.088,0.656-0.111,0.863-0.059.428-.207,0.472-0.767,0.509l-0.656.044,0.221,0.671,0.678-.052c0.87-.059,1.157-0.251,1.239-0.878,0.037-.295.155-1.541,0.177-1.785h-2.7c0.037-.273.059-0.487,0.081-0.627Zm11.413,0.376H95.845V30.66H98.33V29.923H92.6V30.66h2.492v2.589H92.233v0.738h2.861V36.2h0.752V33.986h2.838V33.249Zm-1.791-.214c0.354-.435.944-1.305,1.194-1.711l-0.575-.413a17.416,17.416,0,0,1-1.187,1.7Zm-4.04-1.7c0.295,0.391.87,1.224,1.187,1.718l0.546-.457c-0.317-.472-0.87-1.239-1.187-1.674Zm10.469-.693c0.236,0.229.59,0.583,0.952,0.966l-3.163.1a11.542,11.542,0,0,0,1.725-1.873l-0.656-.369a11.669,11.669,0,0,1-1.939,2.087,1.148,1.148,0,0,1-.6.229l0.184,0.767c1-.088,4.305-0.192,5.123-0.221,0.14,0.155.258,0.3,0.369,0.42l0.472-.546c-0.531-.612-1.438-1.534-1.954-2.006Zm-3.037,5.634h0.745V35.956H104.4v0.317h0.752V33.131h-4.866v3.142Zm4.114-2.426v1.416h-3.369V33.846H104.4Zm2.345,1.689h3.509V34.761h-2.374V34.7l0.317-.251c1.549-1.232,1.9-1.785,1.9-2.655,0-1-.656-1.453-1.739-1.453a4.65,4.65,0,0,0-1.291.162v0.782a3.922,3.922,0,0,1,1.128-.17,0.78,0.78,0,0,1,.959.789c0,0.634-.487,1.224-2.411,2.758v0.87Zm5.1,0.044c0.472,0,.59-0.089.59-0.59s-0.118-.59-0.59-0.59c-0.494,0-.59.074-0.59,0.59S111.351,35.579,111.845,35.579Zm3.333,0.029c1.1,0,1.813-.524,1.813-2.633s-0.715-2.633-1.813-2.633-1.814.531-1.814,2.633S114.086,35.609,115.178,35.609Zm0-.8c-0.62,0-.878-0.361-0.878-1.836s0.258-1.836.878-1.836,0.884,0.369.884,1.836S115.8,34.812,115.178,34.812Z"/>
</svg>
