<?xml version="1.0" encoding="utf-8"?>
<!-- Generator: Adobe Illustrator 23.0.2, SVG Export Plug-In . SVG Version: 6.00 Build 0)  -->
<svg version="1.1" id="图层_1" xmlns="http://www.w3.org/2000/svg" xmlns:xlink="http://www.w3.org/1999/xlink" x="0px" y="0px"
	 width="1722.08px" height="763.287px" viewBox="0 0 1722.08 763.287" enable-background="new 0 0 1722.08 763.287"
	 xml:space="preserve">
<g>
	<polygon fill="#D8D8D8" points="0,52.829 0,156.178 89.503,207.853 179.006,156.178 179.006,52.829 89.503,1.155 	"/>
	<polygon fill="none" stroke="#D8D8D8" stroke-width="2" stroke-miterlimit="10" points="193.143,52.829 193.143,156.178 
		282.646,207.853 372.149,156.178 372.149,52.829 282.646,1.155 	"/>
	<polygon fill="#D8D8D8" points="386.286,52.829 386.286,156.178 475.789,207.853 565.292,156.178 565.292,52.829 475.789,1.155 	
		"/>
	<polygon fill="#D8D8D8" points="579.429,52.829 579.429,156.178 668.932,207.853 758.434,156.178 758.434,52.829 668.932,1.155 	
		"/>
	<polygon fill="#D8D8D8" points="772.572,52.829 772.572,156.178 862.074,207.853 951.577,156.178 951.577,52.829 862.074,1.155 	
		"/>
	<polygon fill="none" stroke="#D8D8D8" stroke-width="2" stroke-miterlimit="10" points="965.714,52.829 965.714,156.178 
		1055.217,207.853 1144.72,156.178 1144.72,52.829 1055.217,1.155 	"/>
	<polygon fill="none" stroke="#D8D8D8" stroke-width="2" stroke-miterlimit="10" points="1158.857,52.829 1158.857,156.178 
		1248.36,207.853 1337.863,156.178 1337.863,52.829 1248.36,1.155 	"/>
	<polygon fill="#D8D8D8" points="1352,52.829 1352,156.178 1441.503,207.853 1531.006,156.178 1531.006,52.829 1441.503,1.155 	"/>
	<polygon fill="#D8D8D8" points="96.572,433.117 96.572,536.466 186.074,588.141 275.577,536.466 275.577,433.117 186.074,381.443 	
		"/>
	<polygon fill="#D8D8D8" points="289.714,433.117 289.714,536.466 379.217,588.141 468.72,536.466 468.72,433.117 379.217,381.443 	
		"/>
	<polygon fill="#D8D8D8" points="1349.931,606.608 1349.931,709.957 1439.434,761.632 1528.937,709.957 1528.937,606.608 
		1439.434,554.933 	"/>
	<polygon fill="#D8D8D8" points="1543.074,606.608 1543.074,709.957 1632.577,761.632 1722.08,709.957 1722.08,606.608 
		1632.577,554.933 	"/>
	<polygon fill="#C8C9CA" points="869.143,433.117 869.143,536.466 958.646,588.141 1048.149,536.466 1048.149,433.117 
		958.646,381.443 	"/>
	<polygon fill="none" stroke="#D8D8D8" stroke-width="2" stroke-miterlimit="10" points="1062.286,433.117 1062.286,536.466 
		1151.789,588.141 1241.292,536.466 1241.292,433.117 1151.789,381.443 	"/>
	<polygon fill="#D8D8D8" points="0,607.108 0,710.457 89.503,762.132 179.006,710.457 179.006,607.108 89.503,555.434 	"/>
	<polygon fill="none" stroke="#D8D8D8" stroke-width="2" stroke-miterlimit="10" points="193.143,607.108 193.143,710.457 
		282.646,762.132 372.149,710.457 372.149,607.108 282.646,555.434 	"/>
	<polygon fill="none" stroke="#D8D8D8" stroke-width="2" stroke-miterlimit="10" points="386.286,607.108 386.286,710.457 
		475.789,762.132 565.291,710.457 565.291,607.108 475.789,555.434 	"/>
	<polygon fill="#D8D8D8" points="579.429,607.108 579.429,710.457 668.931,762.132 758.434,710.457 758.434,607.108 
		668.931,555.434 	"/>
	<polygon fill="#D8D8D8" points="772.571,607.108 772.571,710.457 862.074,762.132 951.577,710.457 951.577,607.108 
		862.074,555.434 	"/>
	<polygon fill="#D8D8D8" points="1255.429,433.117 1255.429,536.466 1344.932,588.141 1434.434,536.466 1434.434,433.117 
		1344.932,381.443 	"/>
	<polygon fill="#D8D8D8" points="1448.572,433.117 1448.572,536.466 1538.074,588.141 1627.577,536.466 1627.577,433.117 
		1538.074,381.443 	"/>
</g>
</svg>
