<?xml version="1.0" encoding="utf-8"?>
<!-- Generator: Adobe Illustrator 23.0.2, SVG Export Plug-In . SVG Version: 6.00 Build 0)  -->
<svg version="1.1" id="图层_1" xmlns="http://www.w3.org/2000/svg" xmlns:xlink="http://www.w3.org/1999/xlink" x="0px" y="0px"
	 width="484.646px" height="481.061px" viewBox="0 0 484.646 481.061" enable-background="new 0 0 484.646 481.061"
	 xml:space="preserve">
<g>
	<path fill="#EAEAEA" d="M484.601,359.261v-6.278c0-16.322-30.137-21.344-32.648-21.344c-2.51-7.535-5.023-15.069-8.788-21.346
		c5.02-5.023,20.089-26.37,8.788-37.671l-5.023-6.278c-8.788-8.788-31.39,5.023-37.668,8.79c-6.278-3.767-13.814-6.278-21.346-8.79
		c-1.256-7.533-6.279-32.645-21.347-32.645h-6.278c-13.811,0-21.346,26.367-22.602,32.645c-7.533,2.512-15.066,5.023-21.346,8.79
		c-6.278-3.767-27.622-20.092-38.923-8.79l-6.278,5.023c-10.046,10.046,6.278,35.158,8.788,38.926
		c-3.767,7.533-6.278,13.811-8.788,21.346c-6.28,1.255-32.647,6.278-32.647,21.344v6.278c0,13.814,28.88,21.346,33.903,22.602
		c2.51,6.281,5.023,13.814,8.788,20.092c-2.51,5.023-18.834,28.88-8.788,38.925l5.023,5.023
		c12.556,12.556,38.923-7.536,38.923-7.536l-1.255-1.255c7.535,5.023,15.069,7.533,22.601,10.046
		c1.256,6.278,8.791,33.903,22.602,33.903h6.278c17.579,0,21.347-32.648,21.347-32.648h-1.256c7.533-1.255,15.067-5.023,22.602-8.79
		c5.02,3.767,28.88,17.581,37.668,8.79l6.278-6.278c11.301-12.555-8.788-36.412-8.788-37.671c3.765-6.278,6.278-13.811,8.788-21.344
		C460.744,381.863,485.856,374.33,484.601,359.261z M362.804,428.324c-37.671,0-69.064-31.392-69.064-69.063
		c0-37.668,31.393-69.06,69.064-69.06c38.923,0,69.06,31.392,69.06,69.06C431.864,396.932,400.471,428.324,362.804,428.324z"/>
	<path fill="#EAEAEA" d="M362.804,312.802c-26.37,0-46.462,21.347-46.462,46.459c0,26.369,21.346,46.461,46.462,46.461
		c25.112,0,46.458-21.347,46.458-46.461C409.262,332.894,387.916,312.802,362.804,312.802z M385.403,358.006
		c0,12.556-10.043,22.601-22.599,22.601c-12.559,0-22.602-10.046-22.602-22.601c0-12.556,10.043-22.602,22.602-22.602
		C375.359,335.404,386.66,346.705,385.403,358.006z"/>
	<polygon fill="#EAEAEA" points="179.556,0 11.301,95.43 179.556,203.413 347.815,95.43 	"/>
	<polygon fill="#EAEAEA" points="0,300.098 167.001,419.385 167.001,227.273 0,119.286 	"/>
	<path fill="#EAEAEA" d="M223.799,358.594v-6.277c0-7.632,3.065-21.831,23.595-31.181c4.554-2.073,9.199-3.578,13.2-4.662
		c0.76-1.953,1.543-3.858,2.365-5.753c-12.49-22.196-13.104-40.477-1.532-52.048l0.666-0.666l6.419-5.135
		c5.714-5.322,13.014-8.128,21.187-8.128c11.343,0,22.258,5.533,29.984,10.227c2.074-0.879,4.167-1.686,6.262-2.447
		c4.201-12.977,13.892-33.921,33.068-36.274v-96.964L192.012,227.273v192.113l47.923-34.231
		C229.298,377.991,223.799,369.043,223.799,358.594z"/>
</g>
</svg>
