<?xml version="1.0" encoding="utf-8"?>
<!-- Generator: Adobe Illustrator 16.0.0, SVG Export Plug-In . SVG Version: 6.00 Build 0)  -->
<!DOCTYPE svg PUBLIC "-//W3C//DTD SVG 1.1//EN" "http://www.w3.org/Graphics/SVG/1.1/DTD/svg11.dtd">
<svg version="1.1" id="图层_1" xmlns="http://www.w3.org/2000/svg" xmlns:xlink="http://www.w3.org/1999/xlink" x="0px" y="0px"
	 width="736px" height="770.216px" viewBox="0 0 736 770.216" enable-background="new 0 0 736 770.216" xml:space="preserve">
<g>
	<g>
		<g>
			<path fill="#96CDE8" d="M612.253,486.883c21.207,0,26.555-5.402,26.555-26.555c0-12.246-8.688-22.262-17.578-29.285l-1.688-1.688
				c-29.551-22.855-60.398-44.633-95.859-58.172c45.102-38.711,73.813-96.058,73.813-160.16C597.495,94.496,502.979,0,386.452,0
				S175.444,94.496,175.444,211.023c0,64.102,28.711,121.449,73.797,160.16C105.296,426.41,2.862,565.597,2.772,729.097v0.071
				c0.09,21.113,9.355,36.863,30.434,36.863c21.258,0,22.766-15.262,22.82-36.359c0-169.282,101.734-329.184,330.445-325.398
				c69.414,1.152,150.746,27.848,200.34,69.164c13.465,11.223,16.43,11.363,22.445,13.09L612.253,486.883 M386.468,363.265
				c-108.984-0.218-161.379-78.175-161.379-152.242c0-74.027,59.863-160.695,161.598-160.695
				c118.215,0,161.594,87.566,161.594,161.594C548.28,286.004,479.476,366.066,386.468,363.265 M456.815,588.367
				c0,21.184,17.184,31.312,38.371,31.312h204.688c21.188,0,38.371-10.128,38.371-31.312c0-21.228-17.184-29.285-38.371-29.285
				H495.187C473.999,559.082,456.815,567.14,456.815,588.367 M699.874,713.172H495.187c-21.188,0-38.371,7.504-38.371,28.691
				c0,21.223,17.184,28.926,38.371,28.926h204.688c21.188,0,38.371-7.723,38.371-28.926
				C738.245,720.676,721.058,713.172,699.874,713.172"/>
		</g>
	</g>
</g>
</svg>
