<svg xmlns="http://www.w3.org/2000/svg" xmlns:xlink="http://www.w3.org/1999/xlink" width="120" height="41" viewBox="0 0 120 41">
  <defs>
    <style>
      .cls-1, .cls-2 {
        fill-rule: evenodd;
      }

      .cls-1 {
        fill: url(#linear-gradient);
      }

      .cls-2 {
        fill: #fff;
      }
    </style>
    <linearGradient id="linear-gradient" x1="0.031" y1="0.5" x2="40" y2="40.469" gradientUnits="userSpaceOnUse">
      <stop offset="0" stop-color="#5eedfb"/>
      <stop offset="0.222" stop-color="#5eedfb"/>
      <stop offset="1" stop-color="#1249d5"/>
    </linearGradient>
  </defs>
  <path id="矩形_3_拷贝" data-name="矩形 3 拷贝" class="cls-1" d="M16.261,35.323l0.024-.006a1.779,1.779,0,0,0,1.232.348,1.067,1.067,0,0,0,.347-0.042,1.837,1.837,0,0,0,1.316-2.208l0.012,0-0.016-.06a1.769,1.769,0,0,0-.661-0.987,1.81,1.81,0,0,0-1.245-.4c-0.123.02-.245,0.04-0.365,0.072a1.749,1.749,0,0,0-.82.476,1.841,1.841,0,0,0-.5,1.771l0.006,0.024a1.8,1.8,0,0,0,.67.972l0.006,0.024Zm-1.1.639-0.012,0a46.787,46.787,0,0,1-4.277,2.285,19.589,19.589,0,0,0,5.4,1.867c0.044-1.125.046-2.264,0.021-3.409A2.748,2.748,0,0,1,15.165,35.962Zm23.091-23.64c-0.422.766-.859,1.523-1.315,2.259a3.108,3.108,0,0,1,.531,1.073,3.259,3.259,0,0,1,.077,1.2c0.793,0.427,1.562.861,2.317,1.337a18.91,18.91,0,0,0-.537-2.863A19.206,19.206,0,0,0,38.256,12.322Zm-4.249,2.341a1.273,1.273,0,0,0-.447.2,1.786,1.786,0,0,0-.826.976,1.82,1.82,0,0,0-.038,1.1,1.743,1.743,0,0,0,.576.908,1.823,1.823,0,0,0,1.21.456,1.574,1.574,0,0,0,.485-0.053,1.875,1.875,0,0,0,1.069-.785,1.743,1.743,0,0,0,.276-1.264,1.015,1.015,0,0,0-.115-0.43,1.742,1.742,0,0,0-.871-0.957A1.76,1.76,0,0,0,34.007,14.663Zm3.134,3.383a3.1,3.1,0,0,1-1.854,1.393,2.925,2.925,0,0,1-1.617-.015A62.611,62.611,0,0,1,20.247,32.668a3.515,3.515,0,0,1,.123.364,3.092,3.092,0,0,1-2.186,3.785,3.548,3.548,0,0,1-.637.107c0.022,1.133.008,2.275-.039,3.389a19.746,19.746,0,0,0,7.684-.511,20.016,20.016,0,0,0,14.8-20.088C39.05,19.108,38.109,18.554,37.14,18.046ZM13.969,10.768a3.054,3.054,0,0,1-1.7,1.977,63.046,63.046,0,0,1,3.149,8.983,61.977,61.977,0,0,1,1.722,9.007,3.181,3.181,0,0,1,2.417.9A60.987,60.987,0,0,0,32.541,18.843a3.007,3.007,0,0,1-1.04-1.589,3.138,3.138,0,0,1,.1-1.92A60.912,60.912,0,0,0,13.969,10.768ZM14.4,34.632a3.077,3.077,0,0,1,1.539-3.522l0-.012a60.939,60.939,0,0,0-1.708-9.049,60.391,60.391,0,0,0-3.18-9l0-.012A3.087,3.087,0,0,1,8,10.755a2.593,2.593,0,0,1-.071-0.314c-1.746-.018-3.5.056-5.275,0.185a19.955,19.955,0,0,0,6.925,26.9c1.681-.8,3.331-1.66,4.914-2.583A2.908,2.908,0,0,1,14.4,34.632ZM9.2,10.447a1.819,1.819,0,0,0,1.248,1.265,1.687,1.687,0,0,0,1.02.034,0.919,0.919,0,0,0,.3-0.131,1.693,1.693,0,0,0,.928-0.978,1.75,1.75,0,0,0,.085-1.162l-0.016-.06-0.012,0a1.836,1.836,0,0,0-2.243-1.254,2.314,2.314,0,0,0-.4.145,1.9,1.9,0,0,0-.818.91,0.291,0.291,0,0,0-.1,0,0.457,0.457,0,0,1,.053.1A1.869,1.869,0,0,0,9.2,10.435ZM7.993,9.2a2.709,2.709,0,0,1,.566-1.137l0-.012c-0.51-.9-1.029-1.784-1.586-2.672A19.862,19.862,0,0,0,3.464,9.348C4.983,9.235,6.478,9.18,7.981,9.2Zm2.194-2.226a3.092,3.092,0,0,1,3.785,2.185C14,9.263,14.024,9.4,14.047,9.532a62.535,62.535,0,0,1,18.241,4.735,3.145,3.145,0,0,1,1.4-.8,3.048,3.048,0,0,1,2.3.279q0.845-1.359,1.59-2.806a20.019,20.019,0,0,0-22.733-9.75,19.747,19.747,0,0,0-6.909,3.4C8.473,5.446,9.007,6.34,9.517,7.24A2.33,2.33,0,0,1,10.187,6.971Z"/>
  <path id="FTSP" class="cls-2" d="M52.152,4.9a3.885,3.885,0,0,0-3.885,3.885h0V25.873a3.885,3.885,0,0,0,3.885-3.885V17.327H57.4a3.885,3.885,0,0,0,3.885-3.885H52.152V8.781H67.108V25.873a3.885,3.885,0,0,0,3.885-3.885V8.781h4.079A3.885,3.885,0,0,0,78.956,4.9h-26.8Zm43.7,3.885A3.885,3.885,0,0,0,99.739,4.9H85.172a6.216,6.216,0,0,0-.318,12.423c0,0.012,3.232.008,3.232,0.008h5.438a2.331,2.331,0,0,1,0,4.662H76.043a3.885,3.885,0,0,0-3.885,3.885H93.524a6.216,6.216,0,0,0,.319-12.423c0-.012-3.232-0.008-3.232-0.008H85.172a2.331,2.331,0,0,1,0-4.662H95.855ZM113.724,4.9h-8.352v0a3.884,3.884,0,0,0-3.829,3.882V25.873a3.885,3.885,0,0,0,3.885-3.885V17.327h5.383s3.236,0,3.232-.008A6.216,6.216,0,0,0,113.724,4.9Zm0,8.546h-5.438s-0.825,0-1.518,0h-1.34V8.781h8.3A2.331,2.331,0,1,1,113.724,13.442Z"/>
  <path id="金融科技服务平台2.0" class="cls-2" d="M52.515,33.809H53.9a13.72,13.72,0,0,1-.906,1.114l0.544,0.45a9.755,9.755,0,0,0,.989-1.232L54.1,33.809h0.762V33.124H52.515V32.379h1.517V31.862a9.282,9.282,0,0,0,1.216.6l0.294-.715a6.751,6.751,0,0,1-3.065-2.168H51.843a6.877,6.877,0,0,1-3.1,2.235l0.317,0.7c0.43-.2.83-0.406,1.193-0.619v0.479h1.518v0.745H49.419v0.686H50.2l-0.453.406a10.8,10.8,0,0,1,.989,1.18l0.483-.531a9.975,9.975,0,0,0-.921-1.055h1.472V35.4H49.019v0.678h6.243V35.4H52.515V33.809Zm-0.362-3.525a6.005,6.005,0,0,0,1.631,1.423H50.552A6.02,6.02,0,0,0,52.152,30.284Zm10.781,5.679a18.368,18.368,0,0,0-.559-1.917l-0.611.184a7.1,7.1,0,0,1,.279.826l-0.566.059V33.75h1v-3h-1V29.635l-0.627-.03v1.143H59.861v3H60.85v1.416c-0.377.029-.762,0.052-1.148,0.066l0.06,0.664c0.868-.066,1.668-0.133,2.454-0.221,0.053,0.214.1,0.413,0.121,0.568Zm-3.2-6H56.245v0.575h3.488V29.96Zm-0.408,2.463V30.9h-2.65v1.519h2.65Zm1.132,0.7V31.383H60.85v1.741H60.457Zm1.427-1.741v1.741H61.477V31.383h0.408Zm-4.605.066h1.442v0.428H57.279V31.449Zm-0.883,4.7H57v-2.81h2.008v1.947a0.264,0.264,0,0,1-.3.324l-0.279.022,0.174,0.6,0.3-.022c0.544-.037.717-0.192,0.717-0.686V32.777H56.4v3.37Zm2.529-1.291V34.3h-0.4c0.144-.258.287-0.531,0.377-0.73l-0.476-.2c-0.1.229-.294,0.612-0.453,0.929H57.6l0.355-.184a6.684,6.684,0,0,0-.4-0.723l-0.423.229a6.705,6.705,0,0,1,.377.678H57.1v0.553h0.619v1.173h0.589V34.857h0.619Zm11.415-.546-0.045-.73-0.966.1V29.65L68.6,29.62v4.137L66.165,34l0.347-.361a11.875,11.875,0,0,0-.861-0.966l-0.181.162V32.312h0.944v-0.7H65.471V30.682c0.37-.081.717-0.155,1.012-0.236l-0.136-.671a19.6,19.6,0,0,1-2.559.5l0.068,0.678c0.272-.037.6-0.088,0.944-0.148v0.8H63.765v0.7h0.944a11.585,11.585,0,0,1-1.291,2.2l0.491,0.546a10.736,10.736,0,0,0,.891-1.482V36.28h0.672V33.426c0.2,0.229.423,0.5,0.574,0.7l0.068-.074,0.053,0.678,2.431-.243v1.77h0.732V34.414Zm-1.925-3.046c-0.347-.317-0.913-0.826-1.276-1.106l-0.453.531a13.312,13.312,0,0,1,1.261,1.136Zm-1.955,1.2c0.325,0.258.921,0.782,1.283,1.114L68.219,33a15.5,15.5,0,0,0-1.306-1.091Zm11.317,3.193a6.138,6.138,0,0,1-1.8-.885,5.3,5.3,0,0,0,1.193-1.918v-0.73H75.814V31.236h1.721v-0.7H75.814V29.6l-0.763-.029v0.966H73.587v0.7h1.465v0.892H73.595v0.708h0.944l-0.634.339a5.517,5.517,0,0,0,.913,1.519,10.906,10.906,0,0,1-1.963.944l0.377,0.774a11.946,11.946,0,0,0,2.159-1.158,9.128,9.128,0,0,0,2.114,1.224Zm-4.454-3.274-0.544.206V31.6h0.649V30.837H72.779V29.643l-0.755-.03v1.224H71.232V31.6h0.793v1.254c-0.445.148-.868,0.273-1.132,0.354l0.219,0.8c0.211-.059.551-0.17,0.913-0.295v1.431c0,0.273-.06.31-0.332,0.332l-0.34.029,0.234,0.774,0.332-.037c0.657-.081.861-0.162,0.861-0.789V33.448c0.3-.111.566-0.214,0.77-0.3Zm3.035,0.45a3.427,3.427,0,0,1-.959,1.416,4.948,4.948,0,0,1-.846-1.416h1.8Zm7.633,1.91a4.608,4.608,0,0,0,.846-1.777V32.32H82.262V30.6h1.767L84,30.992c-0.023.214-.1,0.273-0.453,0.295l-0.566.03,0.227,0.656,0.619-.037c0.642-.037.846-0.155,0.868-0.767,0.023-.376.06-1.069,0.06-1.246H81.6v6.365h0.664V35.83l0.257,0.31a8.534,8.534,0,0,0,1.034-.885,6.767,6.767,0,0,0,1.291,1.018l0.423-.619A8.878,8.878,0,0,1,83.991,34.746Zm-4.983-2.035c0,2.109-.211,2.5-0.664,3.3l0.627,0.332A6.584,6.584,0,0,0,79.627,34h0.936V35.2c0,0.273-.03.31-0.362,0.332l-0.393.029,0.2,0.678L80.42,36.2c0.611-.059.815-0.162,0.815-0.723V29.93H79.008v2.78Zm1.555-2.117v1.047H79.673V30.594h0.891Zm-0.9,2.766c0.008-.118.008-0.236,0.008-0.354V32.29h0.891V33.36h-0.9Zm2.6-.391H84.18a3.848,3.848,0,0,1-.642,1.261A3.864,3.864,0,0,1,82.972,33l-0.574.214a5.455,5.455,0,0,0,.717,1.5,7.076,7.076,0,0,1-.853.708V32.969Zm7.837-.937a9.654,9.654,0,0,0,1.789-1.254v-0.6h-3.45a4.881,4.881,0,0,0,.3-0.42l-0.657-.295a9.086,9.086,0,0,1-2.046,2.05l0.408,0.516a9.679,9.679,0,0,0,1.042-.819,6.293,6.293,0,0,0,1.042.8,17.421,17.421,0,0,1-2.7.737L86.06,33.47A17.943,17.943,0,0,0,89.3,32.423a13.154,13.154,0,0,0,3.269.951l0.174-.723A14.442,14.442,0,0,1,90.1,32.032Zm0.68-1.246a6.242,6.242,0,0,1-1.487.907,4.59,4.59,0,0,1-1.276-.907h2.763ZM88.31,32.873c-0.023.14-.03,0.391-0.083,0.664H86.34v0.627h1.751c-0.242.7-.808,1.121-2.106,1.608l0.43,0.627c1.525-.679,2.174-1.2,2.461-2.235H90.96c-0.038.251-.091,0.656-0.113,0.863-0.06.428-.211,0.472-0.785,0.509l-0.672.044,0.227,0.671,0.694-.052c0.891-.059,1.185-0.251,1.268-0.878,0.038-.295.159-1.541,0.181-1.785H89c0.038-.273.06-0.487,0.083-0.627ZM100,33.249H97.091V30.66h2.544V29.923H93.769V30.66h2.552v2.589H93.392v0.738h2.929V36.2h0.77V33.986H100V33.249Zm-1.834-.214c0.362-.435.966-1.305,1.223-1.711L98.8,30.911a17.407,17.407,0,0,1-1.215,1.7Zm-4.137-1.7c0.3,0.391.891,1.224,1.216,1.718l0.559-.457c-0.325-.472-0.891-1.239-1.216-1.674Zm10.721-.693c0.241,0.229.6,0.583,0.973,0.966l-3.238.1a11.6,11.6,0,0,0,1.766-1.873l-0.672-.369a11.766,11.766,0,0,1-1.985,2.087,1.187,1.187,0,0,1-.619.229l0.189,0.767c1.026-.088,4.408-0.192,5.246-0.221,0.144,0.155.265,0.3,0.378,0.42l0.483-.546c-0.543-.612-1.472-1.534-2-2.006Zm-3.111,5.634H102.4V35.956h3.45v0.317h0.77V33.131h-4.983v3.142Zm4.213-2.426v1.416H102.4V33.846h3.45Zm2.4,1.689h3.594V34.761h-2.431V34.7l0.324-.251c1.586-1.232,1.948-1.785,1.948-2.655,0-1-.672-1.453-1.781-1.453a4.866,4.866,0,0,0-1.322.162v0.782a4.1,4.1,0,0,1,1.155-.17,0.794,0.794,0,0,1,.982.789c0,0.634-.5,1.224-2.469,2.758v0.87Zm5.225,0.044c0.483,0,.6-0.089.6-0.59s-0.121-.59-0.6-0.59c-0.506,0-.6.074-0.6,0.59S112.969,35.579,113.475,35.579Zm3.412,0.029c1.125,0,1.858-.524,1.858-2.633s-0.733-2.633-1.858-2.633-1.857.531-1.857,2.633S115.77,35.609,116.887,35.609Zm0-.8c-0.634,0-.9-0.361-0.9-1.836s0.264-1.836.9-1.836,0.906,0.369.906,1.836S117.522,34.812,116.887,34.812Z"/>
</svg>
