<?xml version="1.0" encoding="utf-8"?>
<!-- Generator: Adobe Illustrator 16.0.0, SVG Export Plug-In . SVG Version: 6.00 Build 0)  -->
<!DOCTYPE svg PUBLIC "-//W3C//DTD SVG 1.1//EN" "http://www.w3.org/Graphics/SVG/1.1/DTD/svg11.dtd">
<svg version="1.1" id="图层_1" xmlns="http://www.w3.org/2000/svg" xmlns:xlink="http://www.w3.org/1999/xlink" x="0px" y="0px"
	 width="622.189px" height="778px" viewBox="0 0 622.189 778" enable-background="new 0 0 622.189 778" xml:space="preserve">
<g>
	<g>
		<g>
			<path fill="#96CDE8" d="M540.102,775.255H79.301c-42.241,0-76.801-34.559-76.801-76.801V391.255
				c0-42.238,34.56-76.801,76.801-76.801h460.801c42.238,0,76.797,34.563,76.797,76.801v307.199
				C616.898,740.697,582.34,775.255,540.102,775.255L540.102,775.255z M79.301,365.653c-14.082,0-25.602,11.524-25.602,25.602
				v307.199c0,14.082,11.52,25.602,25.602,25.602h460.801c14.078,0,25.598-11.52,25.598-25.602V391.255
				c0-14.078-11.52-25.602-25.598-25.602H79.301z M501.699,340.056c-14.078,0-25.598-11.52-25.598-25.602v-89.597
				c0-92.161-74.242-166.403-166.402-166.403s-166.398,74.242-166.398,166.403v89.597c0,14.082-11.52,25.602-25.602,25.602
				c-14.078,0-25.597-11.52-25.597-25.602v-89.597c0-120.321,97.276-217.602,217.597-217.602s217.602,97.281,217.602,217.602v89.597
				C527.301,328.536,515.781,340.056,501.699,340.056L501.699,340.056z M501.699,340.056"/>
			<path fill="#96CDE8" d="M540.102,777.755H79.301C35.574,777.755,0,742.181,0,698.455V391.255
				c0-43.727,35.574-79.301,79.301-79.301h10.302v-87.097c0-58.86,22.875-114.152,64.411-155.689
				C195.549,27.631,250.84,4.755,309.699,4.755c58.861,0,114.152,22.875,155.689,64.413c41.537,41.537,64.412,96.829,64.412,155.689
				v87.097h10.301c43.725,0,79.297,35.574,79.297,79.301v307.199C619.398,742.181,583.826,777.755,540.102,777.755z M79.301,316.955
				C38.332,316.955,5,350.286,5,391.255v307.199c0,40.97,33.332,74.301,74.301,74.301h460.801c40.969,0,74.297-33.331,74.297-74.301
				V391.255c0-40.97-33.328-74.301-74.297-74.301h-10.41c-1.27,14.328-13.34,25.602-27.992,25.602
				c-14.65,0-26.719-11.273-27.986-25.602H145.691c-1.27,14.328-13.339,25.602-27.992,25.602c-14.65,0-26.717-11.273-27.986-25.602
				H79.301z M478.736,316.955c1.25,11.567,11.072,20.602,22.963,20.602c11.895,0,21.717-9.034,22.967-20.602H478.736z
				 M94.736,316.955c1.25,11.567,11.072,20.602,22.963,20.602c11.895,0,21.718-9.034,22.968-20.602H94.736z M478.602,311.955h46.199
				v-87.097c0-118.607-96.494-215.102-215.102-215.102c-118.604,0-215.097,96.495-215.097,215.102v87.097h46.198v-87.097
				c0-45.241,17.534-87.691,49.371-119.53c31.838-31.839,74.287-49.373,119.527-49.373s87.691,17.534,119.529,49.373
				c31.84,31.839,49.373,74.289,49.373,119.53V311.955z M145.801,311.955h327.801v-87.097c0-90.376-73.525-163.903-163.902-163.903
				c-90.373,0-163.898,73.526-163.898,163.903V311.955z M540.102,726.556H79.301c-15.494,0-28.102-12.606-28.102-28.102V391.255
				c0-15.496,12.607-28.102,28.102-28.102h460.801c15.494,0,28.098,12.606,28.098,28.102v307.199
				C568.199,713.95,555.596,726.556,540.102,726.556z M79.301,368.153c-12.738,0-23.102,10.364-23.102,23.102v307.199
				c0,12.738,10.363,23.102,23.102,23.102h460.801c12.736,0,23.098-10.363,23.098-23.102V391.255
				c0-12.738-10.361-23.102-23.098-23.102H79.301z"/>
		</g>
	</g>
</g>
</svg>
