<?xml version="1.0" encoding="utf-8"?>
<!-- Generator: Adobe Illustrator 16.0.0, SVG Export Plug-In . SVG Version: 6.00 Build 0)  -->
<!DOCTYPE svg PUBLIC "-//W3C//DTD SVG 1.1//EN" "http://www.w3.org/Graphics/SVG/1.1/DTD/svg11.dtd">
<svg version="1.1" id="图层_1" xmlns="http://www.w3.org/2000/svg" xmlns:xlink="http://www.w3.org/1999/xlink" x="0px" y="0px"
	 width="870.373px" height="778px" viewBox="0 0 870.373 778" enable-background="new 0 0 870.373 778" xml:space="preserve">
<path fill="#96CDE8" d="M854.129,237.47c-9.832-9.833-25.789-9.833-35.625,0L634.43,421.543l-99.613-99.61
	c-9.832-9.808-25.738-9.808-35.543,0c-9.832,9.801-9.832,25.739,0,35.543l117.27,117.297c0.047,0.051,0.063,0.117,0.113,0.168
	c4.922,4.926,11.375,7.379,17.828,7.371c6.449,0.008,12.895-2.437,17.82-7.346c0.059-0.063,0.079-0.149,0.137-0.211l201.688-201.661
	C863.961,263.259,863.961,247.302,854.129,237.47L854.129,237.47z M854.129,237.47"/>
<path fill="#96CDE8" d="M432.195,294.412H160.248c-13.898,0-25.164,11.293-25.164,25.195c0,13.926,11.266,25.191,25.164,25.191
	h271.947c13.898,0,25.164-11.269,25.164-25.191C457.359,305.705,446.094,294.412,432.195,294.412L432.195,294.412z M432.195,294.412
	"/>
<path fill="#96CDE8" d="M432.195,459.982H160.248c-13.898,0-25.164,11.266-25.164,25.191c0,13.898,11.266,25.191,25.164,25.191
	h271.947c13.898,0,25.164-11.293,25.164-25.191C457.359,471.249,446.094,459.982,432.195,459.982L432.195,459.982z M432.195,459.982
	"/>
<path fill="#96CDE8" d="M673.182,512.906c-13.883,0-25.137,11.227-25.191,25.094h-0.004v152.911c0,27.824-5.762,33.59-33.563,33.59
	H107.848c-27.828,0-33.59-5.766-33.59-33.59V121.949c0-27.828,5.762-33.589,33.59-33.589h506.576
	c27.801,0,33.563,5.761,33.563,33.589V278h0.035c0,0.042-0.004,0.086-0.004,0.133c0,13.906,11.273,25.176,25.176,25.176
	c13.906,0,25.18-11.274,25.18-25.176c0-0.047-0.004-0.09-0.004-0.133h0.004V88.36c0-27.801-22.559-50.36-50.387-50.36H74.258
	C46.43,38,23.871,60.559,23.871,88.36V724.5c0,27.798,22.559,50.355,50.387,50.355h573.729c27.828,0,50.387-22.557,50.387-50.355
	V538h-0.004C698.314,524.133,687.061,512.906,673.182,512.906L673.182,512.906z M673.182,512.906"/>
</svg>
